<mxfile host="Electron" agent="Mozilla/5.0 (Windows NT 10.0; Win64; x64) AppleWebKit/537.36 (KHTML, like Gecko) draw.io/24.7.17 Chrome/128.0.6613.36 Electron/32.0.1 Safari/537.36" version="24.7.17">
  <diagram name="Página-1" id="-pdUwv38ObdXdS6nQDWm">
    <mxGraphModel dx="988" dy="573" grid="1" gridSize="10" guides="1" tooltips="1" connect="1" arrows="1" fold="1" page="1" pageScale="1" pageWidth="827" pageHeight="1169" math="0" shadow="0">
      <root>
        <mxCell id="0" />
        <mxCell id="1" parent="0" />
        <mxCell id="qJGDWgVhXFU_RPSbuycy-1" value="CASA" style="whiteSpace=wrap;html=1;align=center;" parent="1" vertex="1">
          <mxGeometry x="60" y="120" width="60" height="40" as="geometry" />
        </mxCell>
        <mxCell id="qJGDWgVhXFU_RPSbuycy-2" value="EMPLEADO" style="whiteSpace=wrap;html=1;align=center;" parent="1" vertex="1">
          <mxGeometry x="440" y="120" width="100" height="40" as="geometry" />
        </mxCell>
        <mxCell id="qJGDWgVhXFU_RPSbuycy-3" value="Pintar" style="shape=rhombus;perimeter=rhombusPerimeter;whiteSpace=wrap;html=1;align=center;" parent="1" vertex="1">
          <mxGeometry x="220" y="110" width="120" height="60" as="geometry" />
        </mxCell>
        <mxCell id="qJGDWgVhXFU_RPSbuycy-4" value="0, 1" style="endArrow=none;html=1;rounded=0;exitX=1;exitY=0.5;exitDx=0;exitDy=0;entryX=0;entryY=0.5;entryDx=0;entryDy=0;edgeStyle=orthogonalEdgeStyle;verticalAlign=bottom;" parent="1" source="qJGDWgVhXFU_RPSbuycy-1" target="qJGDWgVhXFU_RPSbuycy-3" edge="1">
          <mxGeometry relative="1" as="geometry">
            <mxPoint x="260" y="300" as="sourcePoint" />
            <mxPoint x="420" y="460" as="targetPoint" />
          </mxGeometry>
        </mxCell>
        <mxCell id="qJGDWgVhXFU_RPSbuycy-6" value="1, M" style="endArrow=none;html=1;rounded=0;exitX=1;exitY=0.5;exitDx=0;exitDy=0;entryX=0;entryY=0.5;entryDx=0;entryDy=0;edgeStyle=orthogonalEdgeStyle;verticalAlign=bottom;" parent="1" source="qJGDWgVhXFU_RPSbuycy-3" target="qJGDWgVhXFU_RPSbuycy-2" edge="1">
          <mxGeometry relative="1" as="geometry">
            <mxPoint x="160" y="250" as="sourcePoint" />
            <mxPoint x="414" y="500" as="targetPoint" />
          </mxGeometry>
        </mxCell>
        <mxCell id="qJGDWgVhXFU_RPSbuycy-7" value="&lt;b&gt;0, 1&amp;nbsp;&lt;/b&gt;&lt;div&gt;&amp;gt; 0 porque pueden no haber empleados trabajando en un momento dado&lt;/div&gt;&lt;div&gt;&amp;gt; 1 por que es el máximo de casas que puede pintar 1 empleado&lt;/div&gt;&lt;div&gt;&lt;br&gt;&lt;/div&gt;&lt;div&gt;&lt;b&gt;1, M&lt;/b&gt;&lt;/div&gt;&lt;div&gt;&amp;gt;1 porque si la casa esta en la BBDD tiene que tener como minimo 1 empleado&lt;/div&gt;&lt;div&gt;&amp;gt; M porque pueden haber varios empleados en 1 sola casa&lt;/div&gt;" style="text;html=1;align=left;verticalAlign=top;whiteSpace=wrap;rounded=0;" parent="1" vertex="1">
          <mxGeometry x="60" y="190" width="260" height="130" as="geometry" />
        </mxCell>
        <mxCell id="qJGDWgVhXFU_RPSbuycy-9" value="&lt;b&gt;M : 1&lt;/b&gt;&lt;div&gt;&lt;b&gt;Obligatorio opcional&lt;/b&gt;&lt;/div&gt;" style="text;html=1;align=center;verticalAlign=middle;whiteSpace=wrap;rounded=0;" parent="1" vertex="1">
          <mxGeometry x="215" y="170" width="130" height="30" as="geometry" />
        </mxCell>
        <mxCell id="qJGDWgVhXFU_RPSbuycy-10" value="si hay 0 es opcional" style="text;html=1;align=center;verticalAlign=middle;whiteSpace=wrap;rounded=0;" parent="1" vertex="1">
          <mxGeometry x="360" y="180" width="60" height="30" as="geometry" />
        </mxCell>
        <mxCell id="qJGDWgVhXFU_RPSbuycy-13" value="Titulación" style="ellipse;shape=doubleEllipse;margin=3;whiteSpace=wrap;html=1;align=center;" parent="1" vertex="1">
          <mxGeometry x="440" y="200" width="100" height="40" as="geometry" />
        </mxCell>
        <mxCell id="qJGDWgVhXFU_RPSbuycy-16" value="" style="endArrow=none;html=1;rounded=0;exitX=0.5;exitY=1;exitDx=0;exitDy=0;entryX=0.5;entryY=0;entryDx=0;entryDy=0;edgeStyle=orthogonalEdgeStyle;verticalAlign=bottom;" parent="1" source="qJGDWgVhXFU_RPSbuycy-2" target="qJGDWgVhXFU_RPSbuycy-13" edge="1">
          <mxGeometry relative="1" as="geometry">
            <mxPoint x="290" y="210" as="sourcePoint" />
            <mxPoint x="544" y="460" as="targetPoint" />
          </mxGeometry>
        </mxCell>
        <mxCell id="Ijd-ZF5OLeuJfioop6Al-1" value="&lt;u&gt;codCasa&lt;/u&gt;" style="ellipse;whiteSpace=wrap;html=1;align=center;" vertex="1" parent="1">
          <mxGeometry x="40" y="40" width="100" height="40" as="geometry" />
        </mxCell>
        <mxCell id="Ijd-ZF5OLeuJfioop6Al-2" value="&lt;u&gt;codEmpleado&lt;/u&gt;" style="ellipse;whiteSpace=wrap;html=1;align=center;" vertex="1" parent="1">
          <mxGeometry x="440" y="40" width="100" height="40" as="geometry" />
        </mxCell>
        <mxCell id="Ijd-ZF5OLeuJfioop6Al-3" value="" style="endArrow=none;html=1;rounded=0;exitX=0.5;exitY=0;exitDx=0;exitDy=0;entryX=0.5;entryY=1;entryDx=0;entryDy=0;" edge="1" parent="1" source="qJGDWgVhXFU_RPSbuycy-2" target="Ijd-ZF5OLeuJfioop6Al-2">
          <mxGeometry width="50" height="50" relative="1" as="geometry">
            <mxPoint x="360" y="140" as="sourcePoint" />
            <mxPoint x="410" y="90" as="targetPoint" />
          </mxGeometry>
        </mxCell>
        <mxCell id="Ijd-ZF5OLeuJfioop6Al-4" value="" style="endArrow=none;html=1;rounded=0;exitX=0.5;exitY=0;exitDx=0;exitDy=0;entryX=0.5;entryY=1;entryDx=0;entryDy=0;" edge="1" parent="1" source="qJGDWgVhXFU_RPSbuycy-1" target="Ijd-ZF5OLeuJfioop6Al-1">
          <mxGeometry width="50" height="50" relative="1" as="geometry">
            <mxPoint x="189.76" y="100" as="sourcePoint" />
            <mxPoint x="189.76" y="60" as="targetPoint" />
          </mxGeometry>
        </mxCell>
      </root>
    </mxGraphModel>
  </diagram>
</mxfile>
